# xmcd CD database file
#
# Track frame offsets:
#	150
#	14512
#	28187
#	39785
#	53232
#	67460
#	82535
#	94942
#	106890
#	120504
#	133655
#	145900
#	159477
#	172227
#	185995
#	199309
#	213462
#	224330
#	238684
#	253127
#	266340
#	280570
#
# Disc length: 4076 seconds
#
# Revision: 3
# Processed by: cddbd v1.5.2PL0 Copyright (c) Steve Scherf et al.
# Submitted via: CDex 1.51
#
DISCID=4c0fea16
DTITLE=Various Artist - New York Legends - Harlem was the Place  {1929-1948}
DYEAR=2000
DGENRE=Jazz
TTITLE0=James P.Johnson - Riffs   [1929]
TTITLE1=Fats Waller and His Rhythm - Yatch Club Swing   [1938]
TTITLE2=Willie Smith 'The Lion' - Sneakaway   [1939]
TTITLE3=Duke Ellington and His Cotton Club Orchestra - Jingle Night In Harlem   [1930]
TTITLE4=Duke Ellington and His Famous Orchestra - Harmony In Harlem   [1937]
TTITLE5=Fletcher Henderson and His Orchestra - Sugar Foot Stomp   [1931]
TTITLE6=Chick Webb and His Orchestra - In The Groove At The Groove   [1939]
TTITLE7=Jimmie Lunceford and His Orchestra - Le Jazz Hot   [1939]
TTITLE8=Erskine Hawking and His Orchestra - Midnight Stroll   [1940]
TTITLE9=Cab Calloway and His Orchestra - Com On With The Com On   [1940]
TTITLE10=Stuff Smith and Hid Onyx Club Boys - It Ain't Right   [1936]
TTITLE11=John Kirby and Hid Onyx Club Boys - Undecided   [1938]
TTITLE12=Louis Jordan and His Tympany Five - Choo Choo Ch' Boogie   [1946]
TTITLE13=Teddy Wilson and His Orchestra feat Billie Holiday - Twenty Four Hours A Day   [1935]
TTITLE14=Roy Eldrige and His Orchestra - Christopher Columbus   [1936]
TTITLE15=Lionel Hamton and His Orchestra - Shufflin' At The Hollywood n°2   [1939]
TTITLE16=Hot Lips Page Hot Seven - Paggin' Mr Page n°2   [1944]
TTITLE17=Hot Lips Page with the Count Basie Orchestra - Blues With Lips   [1938]
TTITLE18=Ben Webster - Big Sid Catlett Quatet - Linger Awhile n°2   [1944]
TTITLE19=Coleman Hawkins with Cozy Cole's All Stars - Jump Awhile   [1944]
TTITLE20=Don Byas Quartet - Harvard Blues   [1945]
TTITLE21=Tiny Grimes Quintet - Flyin' High   [1948]
EXTD=YEAR: 2000
EXTT0=
EXTT1=
EXTT2=
EXTT3=
EXTT4=
EXTT5=
EXTT6=
EXTT7=
EXTT8=
EXTT9=
EXTT10=
EXTT11=
EXTT12=
EXTT13=
EXTT14=
EXTT15=
EXTT16=
EXTT17=
EXTT18=
EXTT19=
EXTT20=
EXTT21=
PLAYORDER=
